<svg width="26" height="26" viewBox="0 0 26 26" fill="none" xmlns="http://www.w3.org/2000/svg">
<rect width="26" height="26" rx="4" fill="#ECF3FF"/>
<mask id="mask0_2954_10813" style="mask-type:alpha" maskUnits="userSpaceOnUse" x="4" y="4" width="18" height="18">
<rect x="4" y="4" width="18" height="18" fill="#D9D9D9"/>
</mask>
<g mask="url(#mask0_2954_10813)">
<path d="M13 14.2905C12.236 14.2905 11.5861 14.0177 11.0503 13.4723C10.5145 12.9268 10.2466 12.2652 10.2466 11.4874C10.2466 10.7097 10.5145 10.0481 11.0503 9.50262C11.5861 8.95714 12.236 8.6844 13 8.6844C13.764 8.6844 14.4139 8.95714 14.9497 9.50262C15.4855 10.0481 15.7534 10.7097 15.7534 11.4874C15.7534 12.2652 15.4855 12.9268 14.9497 13.4723C14.4139 14.0177 13.764 14.2905 13 14.2905ZM13 13.2028C13.4636 13.2028 13.8604 13.0349 14.1902 12.6991C14.52 12.3633 14.685 11.9594 14.685 11.4874C14.685 11.0154 14.52 10.6115 14.1902 10.2758C13.8604 9.94 13.4636 9.77211 13 9.77211C12.5364 9.77211 12.1396 9.94 11.8098 10.2758C11.48 10.6115 11.315 11.0154 11.315 11.4874C11.315 11.9594 11.48 12.3633 11.8098 12.6991C12.1396 13.0349 12.5364 13.2028 13 13.2028ZM13 20.5C12.9283 20.5 12.8514 20.4965 12.7692 20.4895C12.687 20.4826 12.6143 20.4651 12.5511 20.4372C10.8725 19.8376 9.52767 18.7772 8.51661 17.256C7.50554 15.7349 7 14.07 7 12.2614V8.68118C7 8.39262 7.0764 8.1349 7.22919 7.90802C7.38199 7.68112 7.58641 7.51726 7.84247 7.41643L12.5211 5.59654C12.6834 5.53218 12.843 5.5 13 5.5C13.157 5.5 13.3166 5.53218 13.4789 5.59654L18.1575 7.41643C18.4136 7.51726 18.618 7.68112 18.7708 7.90802C18.9236 8.1349 19 8.39262 19 8.68118V12.2614C19 14.07 18.4945 15.7349 17.4834 17.256C16.4723 18.7772 15.1275 19.8376 13.4489 20.4372C13.3857 20.4651 13.313 20.4826 13.2308 20.4895C13.1486 20.4965 13.0717 20.5 13 20.5ZM13 6.57968L8.06848 8.49611V12.2614C8.06848 13.0434 8.18044 13.7992 8.40435 14.5287C8.62829 15.2581 8.93941 15.9307 9.33773 16.5465C9.90569 16.2729 10.4963 16.0656 11.1096 15.9246C11.7229 15.7835 12.353 15.713 13 15.713C13.647 15.713 14.2771 15.7835 14.8904 15.9246C15.5037 16.0656 16.0943 16.2729 16.6623 16.5465C17.0606 15.9307 17.3717 15.2581 17.5956 14.5287C17.8196 13.7992 17.9315 13.0434 17.9315 12.2614V8.49611L13 6.57968ZM13 16.8007C12.47 16.8007 11.9534 16.8522 11.4502 16.9552C10.947 17.0581 10.4642 17.2153 10.0016 17.4266C10.4094 17.9019 10.8648 18.3146 11.368 18.6648C11.8712 19.0151 12.4152 19.2793 13 19.4573C13.5848 19.2793 14.1275 19.0151 14.628 18.6648C15.1286 18.3146 15.5827 17.9019 15.9905 17.4266C15.5279 17.2153 15.0464 17.0581 14.5458 16.9552C14.0453 16.8522 13.53 16.8007 13 16.8007Z" fill="#09366D"/>
</g>
</svg>
