<svg width="26" height="26" viewBox="0 0 26 26" fill="none" xmlns="http://www.w3.org/2000/svg">
<rect width="26" height="26" rx="4" fill="#ECF3FF"/>
<mask id="mask0_2954_10726" style="mask-type:alpha" maskUnits="userSpaceOnUse" x="4" y="4" width="18" height="18">
<rect x="4" y="4" width="18" height="18" fill="#D9D9D9"/>
</mask>
<g mask="url(#mask0_2954_10726)">
<path d="M7.14589 12.0259C6.95848 12.0259 6.79356 11.9547 6.65114 11.8123C6.50871 11.6699 6.4375 11.505 6.4375 11.3175V7.14687C6.4375 6.95946 6.50871 6.79454 6.65114 6.65211C6.79356 6.50969 6.95848 6.43848 7.14589 6.43848H11.3166C11.504 6.43848 11.6689 6.50969 11.8113 6.65211C11.9537 6.79454 12.025 6.95946 12.025 7.14687V11.3175C12.025 11.505 11.9537 11.6699 11.8113 11.8123C11.6689 11.9547 11.504 12.0259 11.3166 12.0259H7.14589ZM14.6834 12.0259C14.496 12.0259 14.3311 11.9547 14.1886 11.8123C14.0462 11.6699 13.975 11.505 13.975 11.3175V7.14687C13.975 6.95946 14.0462 6.79454 14.1886 6.65211C14.3311 6.50969 14.496 6.43848 14.6834 6.43848H18.8541C19.0415 6.43848 19.2064 6.50969 19.3488 6.65211C19.4912 6.79454 19.5625 6.95946 19.5625 7.14687V11.3175C19.5625 11.505 19.4912 11.6699 19.3488 11.8123C19.2064 11.9547 19.0415 12.0259 18.8541 12.0259H14.6834ZM7.14589 19.5634C6.95848 19.5634 6.79356 19.4922 6.65114 19.3498C6.50871 19.2074 6.4375 19.0425 6.4375 18.855V14.6844C6.4375 14.497 6.50871 14.332 6.65114 14.1896C6.79356 14.0472 6.95848 13.976 7.14589 13.976H11.3166C11.504 13.976 11.6689 14.0472 11.8113 14.1896C11.9537 14.332 12.025 14.497 12.025 14.6844V18.855C12.025 19.0425 11.9537 19.2074 11.8113 19.3498C11.6689 19.4922 11.504 19.5634 11.3166 19.5634H7.14589ZM16.7685 19.5634C16.609 19.5634 16.4692 19.5033 16.349 19.383C16.2288 19.2627 16.1687 19.1228 16.1687 18.9635V17.3697H14.5562C14.4014 17.3697 14.2659 17.3122 14.1495 17.1971C14.0332 17.0821 13.975 16.9395 13.975 16.7695C13.975 16.61 14.0351 16.4702 14.1554 16.35C14.2758 16.2298 14.4156 16.1697 14.575 16.1697H16.1687V14.5572C16.1687 14.4024 16.2263 14.2668 16.3413 14.1505C16.4564 14.0341 16.5989 13.976 16.769 13.976C16.9284 13.976 17.0682 14.0361 17.1884 14.1564C17.3086 14.2767 17.3687 14.4166 17.3687 14.576V16.1697H18.9812C19.136 16.1697 19.2716 16.2272 19.388 16.3423C19.5043 16.4573 19.5625 16.5999 19.5625 16.7699C19.5625 16.9294 19.5023 17.0692 19.382 17.1894C19.2617 17.3096 19.1219 17.3697 18.9625 17.3697H17.3687V18.9822C17.3687 19.137 17.3112 19.2726 17.1962 19.3889C17.0811 19.5053 16.9385 19.5634 16.7685 19.5634ZM15.175 7.63844V10.826H18.3625V7.63844H15.175ZM7.63746 7.63844V10.826H10.825V7.63844H7.63746ZM7.63746 15.1759V18.3635H10.825V15.1759H7.63746Z" fill="#09366D"/>
</g>
</svg>
