<svg width="13" height="13" viewBox="0 0 13 13" fill="none" xmlns="http://www.w3.org/2000/svg">
<path d="M1.05826 11.9373C0.938691 11.8178 0.878906 11.672 0.878906 11.5C0.878906 11.328 0.939274 11.1816 1.06001 11.0609L10.4959 1.62496H5.33243C5.15534 1.62496 5.00691 1.56504 4.88714 1.44521C4.76734 1.32536 4.70745 1.17686 4.70745 0.999708C4.70745 0.822542 4.76734 0.674132 4.88714 0.554479C5.00691 0.434826 5.15534 0.375 5.33243 0.375H11.8709C12.0843 0.375 12.2632 0.44718 12.4075 0.591541C12.5519 0.735902 12.6241 0.914784 12.6241 1.12819V7.66665C12.6241 7.84373 12.5642 7.99217 12.4443 8.11196C12.3245 8.23174 12.176 8.29163 11.9988 8.29163C11.8217 8.29163 11.6732 8.23174 11.5536 8.11196C11.4339 7.99217 11.3741 7.84373 11.3741 7.66665V2.50315L1.91734 11.9599C1.8042 12.0753 1.66535 12.133 1.50078 12.133C1.3362 12.133 1.18869 12.0678 1.05826 11.9373Z" fill="#121212"/>
</svg>
