<svg width="26" height="26" viewBox="0 0 26 26" fill="none" xmlns="http://www.w3.org/2000/svg">
<rect width="26" height="26" rx="4" fill="#ECF3FF"/>
<mask id="mask0_2954_10672" style="mask-type:alpha" maskUnits="userSpaceOnUse" x="4" y="4" width="18" height="18">
<rect x="4" y="4" width="18" height="18" fill="#D9D9D9"/>
</mask>
<g mask="url(#mask0_2954_10672)">
<path d="M12.9953 12.7785C13.1575 12.7785 13.2948 12.7233 13.4072 12.6131C13.5197 12.5029 13.5759 12.366 13.5759 12.2025V9.54429C13.5759 9.38083 13.5213 9.24397 13.4119 9.13373C13.3026 9.02348 13.1668 8.96836 13.0047 8.96836C12.8425 8.96836 12.7052 9.02348 12.5928 9.13373C12.4803 9.24397 12.4241 9.38083 12.4241 9.54429V12.2025C12.4241 12.366 12.4787 12.5029 12.5881 12.6131C12.6974 12.7233 12.8332 12.7785 12.9953 12.7785ZM9.53962 17.0316C9.70177 17.0316 9.83908 16.9765 9.95153 16.8663C10.064 16.756 10.1202 16.6192 10.1202 16.4557V9.54429C10.1202 9.38083 10.0656 9.24397 9.95621 9.13373C9.84685 9.02348 9.7111 8.96836 9.54897 8.96836C9.38681 8.96836 9.24951 9.02348 9.13705 9.13373C9.02459 9.24397 8.96836 9.38083 8.96836 9.54429V16.4557C8.96836 16.6192 9.02303 16.756 9.13238 16.8663C9.24173 16.9765 9.37748 17.0316 9.53962 17.0316ZM16.451 14.905C16.6132 14.905 16.7505 14.85 16.8629 14.7399C16.9754 14.6299 17.0316 14.4932 17.0316 14.33V9.55056C17.0316 9.38735 16.977 9.24951 16.8676 9.13705C16.7583 9.02459 16.6225 8.96836 16.4604 8.96836C16.2982 8.96836 16.1609 9.0234 16.0485 9.13346C15.936 9.24354 15.8798 9.38019 15.8798 9.54341V14.3228C15.8798 14.4861 15.9344 14.6239 16.0438 14.7364C16.1531 14.8488 16.2889 14.905 16.451 14.905ZM7.42455 20C7.0257 20 6.68856 19.8623 6.41313 19.5869C6.13771 19.3114 6 18.9743 6 18.5754V7.42455C6 7.02569 6.13771 6.68856 6.41313 6.41313C6.68856 6.13771 7.0257 6 7.42455 6H18.5754C18.9743 6 19.3114 6.13771 19.5869 6.41313C19.8623 6.68856 20 7.02569 20 7.42455V18.5754C20 18.9743 19.8623 19.3114 19.5869 19.5869C19.3114 19.8623 18.9743 20 18.5754 20H7.42455ZM7.42455 18.8481H18.5754C18.6436 18.8481 18.7061 18.8197 18.7629 18.7629C18.8197 18.7061 18.8481 18.6436 18.8481 18.5754V7.42455C18.8481 7.35638 18.8197 7.29389 18.7629 7.23708C18.7061 7.18028 18.6436 7.15188 18.5754 7.15188H7.42455C7.35638 7.15188 7.29389 7.18028 7.23708 7.23708C7.18028 7.29389 7.15188 7.35638 7.15188 7.42455V18.5754C7.15188 18.6436 7.18028 18.7061 7.23708 18.7629C7.29389 18.8197 7.35638 18.8481 7.42455 18.8481Z" fill="#09366D"/>
</g>
</svg>
