<svg width="26" height="26" viewBox="0 0 26 26" fill="none" xmlns="http://www.w3.org/2000/svg">
<rect width="26" height="26" rx="4" fill="#ECF3FF"/>
<mask id="mask0_2954_10751" style="mask-type:alpha" maskUnits="userSpaceOnUse" x="4" y="4" width="18" height="18">
<rect x="4" y="4" width="18" height="18" fill="#D9D9D9"/>
</mask>
<g mask="url(#mask0_2954_10751)">
<path d="M11.5572 12.7509C10.8103 12.7509 10.1861 12.5001 9.68457 11.9986C9.18301 11.497 8.93223 10.8728 8.93223 10.126C8.93223 9.37908 9.18301 8.75487 9.68457 8.25332C10.1861 7.75176 10.8103 7.50098 11.5572 7.50098C12.3041 7.50098 12.9283 7.75176 13.4298 8.25332C13.9314 8.75487 14.1822 9.37908 14.1822 10.126C14.1822 10.8728 13.9314 11.497 13.4298 11.9986C12.9283 12.5001 12.3041 12.7509 11.5572 12.7509ZM6.5959 18.4812C6.39961 18.4812 6.23056 18.41 6.08873 18.2675C5.9469 18.1251 5.87598 17.9567 5.87598 17.7622V16.7577C5.87598 16.3538 5.97261 16.0077 6.16589 15.7192C6.35915 15.4308 6.63511 15.2024 6.99376 15.0341C7.69185 14.6986 8.4118 14.4392 9.15361 14.256C9.89543 14.0728 10.6951 13.9813 11.5526 13.9813H11.7764C11.8495 13.9813 11.9149 13.9827 11.9726 13.9856C11.8914 14.1743 11.8242 14.367 11.7711 14.5634C11.7179 14.7599 11.6688 14.9658 11.6236 15.1812H11.5572C10.8062 15.1812 10.1075 15.2618 9.46083 15.4228C8.81419 15.5839 8.1702 15.8139 7.52885 16.1129C7.34616 16.2043 7.225 16.3048 7.16538 16.4144C7.10576 16.524 7.07596 16.6384 7.07596 16.7577V17.2812H11.7447C11.813 17.4966 11.8947 17.7024 11.9899 17.8985C12.0851 18.0947 12.1923 18.2889 12.3115 18.4812H6.5959ZM11.5572 11.551C11.9697 11.551 12.3103 11.4166 12.5791 11.1478C12.8478 10.8791 12.9822 10.5385 12.9822 10.126C12.9822 9.71346 12.8478 9.37283 12.5791 9.10408C12.3103 8.83533 11.9697 8.70096 11.5572 8.70096C11.1447 8.70096 10.8041 8.83533 10.5353 9.10408C10.2666 9.37283 10.1322 9.71346 10.1322 10.126C10.1322 10.5385 10.2666 10.8791 10.5353 11.1478C10.8041 11.4166 11.1447 11.551 11.5572 11.551ZM16.5886 17.173C16.9815 17.173 17.3175 17.0332 17.5969 16.7534C17.8762 16.4737 18.0159 16.1374 18.0159 15.7445C18.0159 15.3517 17.876 15.0156 17.5962 14.7363C17.3165 14.4569 16.9802 14.3173 16.5873 14.3173C16.1945 14.3173 15.8584 14.4572 15.5791 14.7369C15.2998 15.0167 15.1601 15.353 15.1601 15.7458C15.1601 16.1386 15.3 16.4747 15.5797 16.754C15.8595 17.0334 16.1958 17.173 16.5886 17.173ZM15.8567 18.06C15.6904 18.0322 15.5315 17.9785 15.3801 17.8992C15.2286 17.8199 15.088 17.7158 14.9582 17.587L14.2572 17.8567C14.1705 17.8817 14.09 17.8797 14.0157 17.8509C13.9414 17.8221 13.8835 17.7687 13.8418 17.6908L13.5649 17.2105C13.512 17.1387 13.4926 17.0597 13.5065 16.9735C13.5205 16.8873 13.5568 16.8211 13.6154 16.7748L14.175 16.3192C14.1337 16.1625 14.113 15.9711 14.113 15.7452C14.113 15.5192 14.1337 15.3278 14.175 15.1711L13.6226 14.7011C13.564 14.6548 13.5277 14.5886 13.5137 14.5024C13.4998 14.4162 13.5193 14.3348 13.5721 14.2581L13.849 13.7779C13.8907 13.7064 13.9486 13.657 14.0229 13.6298C14.0972 13.6026 14.1777 13.6014 14.2644 13.6264L14.9582 13.8962C15.0832 13.7673 15.2226 13.6644 15.3765 13.5875C15.5303 13.5106 15.6904 13.4582 15.8567 13.4303L15.9635 12.7409C15.9884 12.6571 16.0319 12.5884 16.0942 12.5346C16.1564 12.4808 16.2311 12.4538 16.3183 12.4538H16.8721C16.9615 12.4538 17.0382 12.4807 17.1021 12.5343C17.166 12.588 17.2076 12.6568 17.2269 12.7409L17.3264 13.4303C17.4928 13.4582 17.6519 13.5103 17.8038 13.5866C17.9557 13.6629 18.0961 13.7613 18.225 13.8817L18.9259 13.6264C19.0115 13.6062 19.0916 13.6094 19.1662 13.6358C19.2409 13.6622 19.2992 13.7144 19.3413 13.7923L19.6182 14.2581C19.6711 14.3312 19.6882 14.4093 19.6694 14.4925C19.6507 14.5757 19.6129 14.6404 19.5561 14.6866L19.0081 15.1567C19.0495 15.2996 19.0701 15.4937 19.0701 15.7391C19.0701 15.9845 19.0495 16.1778 19.0081 16.3192L19.5677 16.7748C19.6312 16.8211 19.6675 16.8885 19.6766 16.9771C19.6858 17.0657 19.6639 17.1483 19.611 17.225L19.3341 17.7052C19.2933 17.7767 19.2364 17.8261 19.1633 17.8533C19.0903 17.8805 19.0112 17.8817 18.9259 17.8567L18.225 17.587C18.0952 17.7158 17.9545 17.8199 17.8031 17.8992C17.6517 17.9785 17.4928 18.0322 17.3264 18.06L17.2269 18.7495C17.2076 18.8335 17.166 18.9023 17.1021 18.956C17.0382 19.0096 16.9615 19.0365 16.8721 19.0365H16.3183C16.2311 19.0365 16.1564 19.0096 16.0942 18.9557C16.0319 18.9019 15.9884 18.8332 15.9635 18.7495L15.8567 18.06Z" fill="#09366D"/>
</g>
</svg>
