<svg width="26" height="26" viewBox="0 0 26 26" fill="none" xmlns="http://www.w3.org/2000/svg">
<rect width="26" height="26" rx="4" fill="#ECF3FF"/>
<mask id="mask0_2954_10742" style="mask-type:alpha" maskUnits="userSpaceOnUse" x="4" y="4" width="18" height="18">
<rect x="4" y="4" width="18" height="18" fill="#D9D9D9"/>
</mask>
<g mask="url(#mask0_2954_10742)">
<path d="M14.1505 20.125H11.8414C11.6607 20.125 11.5056 20.0653 11.3763 19.9461C11.247 19.8269 11.1698 19.6769 11.1448 19.4961L10.9458 17.8779C10.7823 17.798 10.5919 17.6976 10.3746 17.5764C10.1573 17.4552 9.97172 17.3379 9.81787 17.2245L8.32653 17.8663C8.15346 17.9413 7.98158 17.9476 7.81091 17.8851C7.64023 17.8226 7.5097 17.711 7.41931 17.5504L6.27271 15.5485C6.18232 15.388 6.15781 15.2235 6.19916 15.0553C6.24049 14.887 6.32895 14.7452 6.46452 14.6298L7.72655 13.6606C7.72174 13.5615 7.71573 13.4526 7.70851 13.3339C7.7013 13.2151 7.69769 13.1062 7.69769 13.0072C7.69769 12.913 7.7013 12.8077 7.70851 12.6913C7.71573 12.575 7.72174 12.4577 7.72655 12.3394L6.46452 11.3702C6.32895 11.2548 6.24049 11.113 6.19916 10.9447C6.15781 10.7764 6.18232 10.612 6.27271 10.4514L7.41931 8.46396C7.51451 8.30819 7.64504 8.19785 7.81091 8.13295C7.97677 8.06805 8.14624 8.0731 8.31931 8.1481L9.81065 8.78271C9.97893 8.66444 10.1657 8.54593 10.371 8.42718C10.5763 8.30841 10.7655 8.20672 10.9386 8.12211L11.1448 6.50386C11.1698 6.32308 11.247 6.17308 11.3763 6.05386C11.5056 5.93462 11.6607 5.875 11.8414 5.875H14.1505C14.3313 5.875 14.4875 5.93462 14.6193 6.05386C14.751 6.17308 14.8294 6.32308 14.8544 6.50386L15.0534 8.12933C15.2409 8.22356 15.4289 8.32524 15.6174 8.43438C15.8058 8.54351 15.9866 8.65963 16.1597 8.78271L17.6799 8.1481C17.853 8.0731 18.0236 8.06564 18.1919 8.12573C18.3602 8.18583 18.4895 8.29617 18.5799 8.45674L19.7452 10.4514C19.8356 10.612 19.8633 10.7764 19.8282 10.9447C19.7931 11.113 19.7015 11.2548 19.5534 11.3702L18.2626 12.361C18.277 12.4697 18.2854 12.5798 18.2878 12.6913C18.2902 12.8029 18.2914 12.9057 18.2914 13C18.2914 13.0894 18.289 13.1899 18.2842 13.3014C18.2794 13.413 18.2746 13.5303 18.2698 13.6534L19.5462 14.6298C19.6991 14.7404 19.7919 14.881 19.8246 15.0517C19.8573 15.2223 19.8284 15.388 19.738 15.5485L18.5727 17.5576C18.4823 17.7182 18.3529 17.8274 18.1847 17.8851C18.0164 17.9427 17.8457 17.9341 17.6727 17.8591L16.1597 17.2173C15.9866 17.3403 15.8034 17.4589 15.6102 17.5728C15.4169 17.6867 15.2313 17.786 15.0534 17.8706L14.8544 19.4961C14.8294 19.6769 14.751 19.8269 14.6193 19.9461C14.4875 20.0653 14.3313 20.125 14.1505 20.125ZM12.9707 15.3062C13.6073 15.3062 14.1508 15.081 14.6013 14.6305C15.0517 14.18 15.277 13.6365 15.277 13C15.277 12.3635 15.0517 11.82 14.6013 11.3695C14.1508 10.919 13.6073 10.6938 12.9707 10.6938C12.339 10.6938 11.7967 10.919 11.3438 11.3695C10.891 11.82 10.6645 12.3635 10.6645 13C10.6645 13.6365 10.891 14.18 11.3438 14.6305C11.7967 15.081 12.339 15.3062 12.9707 15.3062ZM12.9707 14.1062C12.6707 14.1062 12.4114 13.9969 12.1926 13.7781C11.9739 13.5594 11.8645 13.3 11.8645 13C11.8645 12.7 11.9739 12.4406 12.1926 12.2219C12.4114 12.0031 12.6707 11.8937 12.9707 11.8937C13.2707 11.8937 13.5301 12.0031 13.7489 12.2219C13.9676 12.4406 14.077 12.7 14.077 13C14.077 13.3 13.9676 13.5594 13.7489 13.7781C13.5301 13.9969 13.2707 14.1062 12.9707 14.1062ZM12.2496 18.925H13.7424L13.9746 16.9533C14.3323 16.8533 14.6727 16.7082 14.9957 16.5178C15.3188 16.3274 15.6275 16.0875 15.9217 15.7981L17.7477 16.5812L18.5049 15.3437L16.8967 14.1178C16.9592 13.9235 17.0018 13.7363 17.0244 13.556C17.0469 13.3757 17.0582 13.1904 17.0582 13C17.0582 12.8298 17.0469 12.6601 17.0244 12.4908C17.0018 12.3216 16.9655 12.1298 16.9155 11.9154L18.5381 10.6562L17.7808 9.41873L15.9332 10.2135C15.6698 9.94518 15.3628 9.70816 15.0123 9.50239C14.6618 9.29662 14.3198 9.15094 13.9861 9.06537L13.7496 7.07498H12.2424L12.0131 9.05815C11.6554 9.14854 11.3145 9.287 10.9905 9.47354C10.6664 9.66008 10.3573 9.90046 10.0631 10.1947L8.23709 9.41873L7.47988 10.6562L9.06209 11.8822C9.01209 12.0726 8.97459 12.2639 8.94959 12.4562C8.92459 12.6485 8.91209 12.8322 8.91209 13.0072C8.91209 13.1774 8.92459 13.3531 8.94959 13.5344C8.97459 13.7156 9.00969 13.9038 9.05487 14.099L7.47988 15.3437L8.23709 16.5812L10.0558 15.8125C10.3405 16.0923 10.6448 16.3255 10.9688 16.512C11.2929 16.6985 11.6385 16.8418 12.0058 16.9418L12.2496 18.925Z" fill="#09366D"/>
</g>
</svg>
