<svg width="26" height="26" viewBox="0 0 26 26" fill="none" xmlns="http://www.w3.org/2000/svg">
<g clip-path="url(#clip0_3422_2524)">
<path d="M22 0H4C1.79086 0 0 1.79086 0 4V22C0 24.2091 1.79086 26 4 26H22C24.2091 26 26 24.2091 26 22V4C26 1.79086 24.2091 0 22 0Z" fill="#ECF3FF"/>
<mask id="mask0_3422_2524" style="mask-type:alpha" maskUnits="userSpaceOnUse" x="4" y="4" width="18" height="18">
<path d="M22 4H4V22H22V4Z" fill="#D9D9D9"/>
</mask>
<g mask="url(#mask0_3422_2524)">
<path d="M10.3654 15.0888C10.539 15.5829 10.8156 15.998 11.1953 16.3343C11.575 16.6706 12.0079 16.9043 12.4941 17.0355V17.4423C12.4941 17.5824 12.5434 17.6985 12.642 17.7907C12.7406 17.8829 12.86 17.929 13 17.929C13.14 17.929 13.2562 17.8797 13.3484 17.7811C13.4406 17.6825 13.4867 17.5631 13.4867 17.4231V17.0547C14.0705 16.9867 14.5786 16.7433 15.0111 16.3247C15.4435 15.9061 15.6598 15.4132 15.6598 14.8462C15.6598 14.2692 15.4785 13.7929 15.1161 13.4172C14.7537 13.0414 14.2071 12.7189 13.4763 12.4497C12.6548 12.1479 12.1338 11.8927 11.9134 11.6842C11.693 11.4756 11.5828 11.1963 11.5828 10.8461C11.5828 10.5601 11.7123 10.3166 11.9712 10.1154C12.23 9.91418 12.5537 9.81359 12.9423 9.81359C13.2914 9.81359 13.608 9.8952 13.892 10.0584C14.176 10.2216 14.3777 10.4457 14.497 10.7307L15.3506 10.3683C15.177 9.98471 14.9277 9.66962 14.6028 9.42307C14.2778 9.17653 13.9058 9.01726 13.4867 8.94526V8.55768C13.4867 8.41764 13.4406 8.30152 13.3484 8.20931C13.2562 8.11711 13.14 8.07101 13 8.07101C12.86 8.07101 12.7438 8.11711 12.6516 8.20931C12.5594 8.30152 12.5133 8.41764 12.5133 8.55768V8.96449C11.9216 9.0779 11.4564 9.30867 11.1176 9.6568C10.7789 10.0049 10.6095 10.4078 10.6095 10.8654C10.6095 11.4176 10.8038 11.8858 11.1923 12.27C11.5809 12.6541 12.2155 13.001 13.0962 13.3107C13.683 13.5207 14.1004 13.7448 14.3484 13.983C14.5964 14.2212 14.7204 14.5089 14.7204 14.8462C14.7204 15.2387 14.5624 15.557 14.2463 15.801C13.9302 16.0451 13.5673 16.1672 13.1575 16.1672C12.7221 16.1672 12.3336 16.0274 11.9919 15.7478C11.6501 15.4682 11.4068 15.1164 11.2618 14.6923L10.3654 15.0888ZM13.0013 20C12.0418 20 11.1367 19.8178 10.2858 19.4535C9.43493 19.0891 8.69017 18.5878 8.05154 17.9494C7.4129 17.3111 6.91132 16.5666 6.54679 15.7162C6.18226 14.8657 6 13.9607 6 13.0013C6 12.029 6.18218 11.1207 6.54654 10.2762C6.9109 9.43173 7.41225 8.69017 8.05058 8.05154C8.68893 7.4129 9.43335 6.91132 10.2838 6.54679C11.1343 6.18226 12.0393 6 12.9987 6C13.971 6 14.8793 6.18218 15.7238 6.54654C16.5683 6.9109 17.3098 7.41225 17.9485 8.05058C18.5871 8.68893 19.0887 9.43014 19.4532 10.2742C19.8177 11.1183 20 12.0265 20 12.9987C20 13.9581 19.8178 14.8633 19.4535 15.7142C19.0891 16.5651 18.5878 17.3098 17.9494 17.9485C17.3111 18.5871 16.5699 19.0887 15.7258 19.4532C14.8817 19.8177 13.9735 20 13.0013 20ZM13 19C14.6667 19 16.0833 18.4167 17.25 17.25C18.4167 16.0833 19 14.6667 19 13C19 11.3333 18.4167 9.91666 17.25 8.74999C16.0833 7.58332 14.6667 6.99998 13 6.99998C11.3333 6.99998 9.91666 7.58332 8.74999 8.74999C7.58332 9.91666 6.99998 11.3333 6.99998 13C6.99998 14.6667 7.58332 16.0833 8.74999 17.25C9.91666 18.4167 11.3333 19 13 19Z" fill="#09366D"/>
</g>
</g>
<defs>
<clipPath id="clip0_3422_2524">
<rect width="26" height="26" fill="white"/>
</clipPath>
</defs>
</svg>
