<svg width="26" height="26" viewBox="0 0 26 26" fill="none" xmlns="http://www.w3.org/2000/svg">
<rect width="26" height="26" rx="4" fill="#ECF3FF"/>
<mask id="mask0_3209_8109" style="mask-type:alpha" maskUnits="userSpaceOnUse" x="4" y="4" width="18" height="18">
<rect x="4" y="4" width="18" height="18" fill="#D9D9D9"/>
</mask>
<g mask="url(#mask0_3209_8109)">
<mask id="mask1_3209_8109" style="mask-type:alpha" maskUnits="userSpaceOnUse" x="6" y="6" width="14" height="14">
<rect x="6" y="6" width="14" height="14" fill="#09366D"/>
</mask>
<g mask="url(#mask1_3209_8109)">
<path d="M9.41602 15.9173C9.13987 15.9173 8.91602 15.6935 8.91602 15.4173V12.334C8.91602 12.0578 9.13987 11.834 9.41602 11.834H9.58268C9.85882 11.834 10.0827 12.0578 10.0827 12.334V15.4173C10.0827 15.6935 9.85882 15.9173 9.58268 15.9173H9.41602ZM12.916 15.9173C12.6399 15.9173 12.416 15.6935 12.416 15.4173V12.334C12.416 12.0578 12.6399 11.834 12.916 11.834H13.0827C13.3588 11.834 13.5827 12.0578 13.5827 12.334V15.4173C13.5827 15.6935 13.3588 15.9173 13.0827 15.9173H12.916ZM7.66602 10.6673C7.38987 10.6673 7.16602 10.4435 7.16602 10.1673V9.80967C7.16602 9.62028 7.27302 9.44715 7.44241 9.36245L12.7757 6.69579C12.9165 6.62541 13.0822 6.62541 13.223 6.69579L18.5563 9.36245C18.7257 9.44715 18.8327 9.62028 18.8327 9.80967V10.1673C18.8327 10.4435 18.6088 10.6673 18.3327 10.6673H7.66602ZM9.77643 9.50065H16.2223L12.9993 7.89648L9.77643 9.50065ZM7.66602 18.2507C7.38987 18.2507 7.16602 18.0268 7.16602 17.7507V17.584C7.16602 17.3078 7.38987 17.084 7.66602 17.084H13.7405C13.9983 17.084 14.2123 17.2802 14.2478 17.5355C14.2543 17.5823 14.261 17.6287 14.2681 17.6746V17.6746C14.3129 17.9659 14.1028 18.2507 13.8081 18.2507H7.66602ZM16.6396 13.368C16.3072 13.5342 15.916 13.2925 15.916 12.9208V12.334C15.916 12.0578 16.1399 11.834 16.416 11.834H16.5827C16.8588 11.834 17.0827 12.0578 17.0827 12.334V12.8375C17.0827 13.0269 16.9757 13.2 16.8063 13.2847L16.6396 13.368ZM17.666 20.0007C16.9952 19.8354 16.4386 19.4489 15.9962 18.8413C15.5539 18.2336 15.3327 17.5604 15.3327 16.8215V15.334L17.4424 14.2791C17.5832 14.2087 17.7489 14.2087 17.8896 14.2791L19.9993 15.334V16.8215C19.9993 17.5604 19.7782 18.2336 19.3358 18.8413C18.8934 19.4489 18.3368 19.8354 17.666 20.0007ZM17.2431 18.2507L19.2702 16.2382L18.6577 15.6257L17.2431 17.0111L16.6744 16.4423L16.0618 17.0694L17.2431 18.2507Z" fill="#09366D"/>
</g>
</g>
</svg>
