<svg width="26" height="26" viewBox="0 0 26 26" fill="none" xmlns="http://www.w3.org/2000/svg">
<rect width="26" height="26" rx="4" fill="#ECF3FF"/>
<mask id="mask0_2954_10805" style="mask-type:alpha" maskUnits="userSpaceOnUse" x="4" y="4" width="18" height="18">
<rect x="4" y="4" width="18" height="18" fill="#D9D9D9"/>
</mask>
<g mask="url(#mask0_2954_10805)">
<path d="M11.4472 12.7685C11.0802 12.7685 10.7759 12.6312 10.5345 12.3567C10.293 12.0822 10.1963 11.7603 10.2443 11.3911L10.4621 9.66901C10.5477 9.04787 10.8318 8.53418 11.3145 8.12793C11.7972 7.72168 12.3592 7.51855 13.0006 7.51855C13.6419 7.51855 14.2039 7.72168 14.6866 8.12793C15.1693 8.53418 15.4534 9.04787 15.539 9.66901L15.7568 11.3911C15.8049 11.7603 15.7082 12.0822 15.4667 12.3567C15.2252 12.6312 14.9209 12.7685 14.5539 12.7685H11.4472ZM11.4256 11.5685H14.5756L14.3506 9.84354C14.3032 9.51541 14.1522 9.24588 13.8976 9.03494C13.643 8.824 13.344 8.71854 13.0006 8.71854C12.6571 8.71854 12.3581 8.824 12.1035 9.03494C11.8489 9.24588 11.6979 9.51541 11.6506 9.84354L11.4256 11.5685ZM8.53374 18.48C8.19677 18.48 7.91014 18.3619 7.67382 18.1255C7.4375 17.8892 7.31934 17.6026 7.31934 17.2656V16.7565C7.31934 16.3767 7.42222 16.0334 7.628 15.7267C7.83376 15.42 8.10148 15.1886 8.43115 15.0325C9.16398 14.6944 9.91693 14.4344 10.69 14.2527C11.4631 14.0709 12.2333 13.9801 13.0006 13.9801C13.7679 13.9801 14.5412 14.0709 15.3205 14.2527C16.0998 14.4344 16.8477 14.6945 17.564 15.033C17.8977 15.1887 18.1674 15.42 18.3731 15.7267C18.5789 16.0334 18.6818 16.3767 18.6818 16.7565V17.2656C18.6818 17.6026 18.5636 17.8892 18.3273 18.1255C18.091 18.3619 17.8044 18.48 17.4674 18.48H8.53374ZM8.51932 17.28H17.4818V16.7517C17.4818 16.603 17.4409 16.4702 17.3592 16.3534C17.2775 16.2365 17.1674 16.156 17.0289 16.1118C16.4078 15.8185 15.7494 15.5899 15.0537 15.426C14.358 15.262 13.6736 15.18 13.0006 15.18C12.3275 15.18 11.6431 15.2651 10.9474 15.4353C10.2518 15.6055 9.59335 15.831 8.9722 16.1118C8.83249 16.1799 8.72209 16.2664 8.64099 16.3713C8.55987 16.4762 8.51932 16.603 8.51932 16.7517V17.28Z" fill="#09366D"/>
</g>
</svg>
