<svg width="26" height="26" viewBox="0 0 26 26" fill="none" xmlns="http://www.w3.org/2000/svg">
<rect width="26" height="26" rx="4" fill="#ECF3FF"/>
<mask id="mask0_2954_10697" style="mask-type:alpha" maskUnits="userSpaceOnUse" x="4" y="4" width="18" height="18">
<rect x="4" y="4" width="18" height="18" fill="#D9D9D9"/>
</mask>
<g mask="url(#mask0_2954_10697)">
<path d="M10.603 12.9996L11.5579 12.0448C11.6569 11.9457 11.7088 11.8308 11.7136 11.7001C11.7184 11.5693 11.6695 11.452 11.5668 11.3482C11.457 11.2443 11.3391 11.1936 11.2132 11.196C11.0872 11.1984 10.9723 11.2515 10.8685 11.3554L9.6425 12.5813C9.51943 12.6999 9.45789 12.8381 9.45789 12.9962C9.45789 13.1542 9.51943 13.2948 9.6425 13.4178L10.8685 14.6438C10.9633 14.7429 11.076 14.7916 11.2064 14.7902C11.3369 14.7888 11.457 14.7361 11.5668 14.6323C11.6695 14.5284 11.7196 14.4123 11.7172 14.284C11.7148 14.1556 11.6617 14.0395 11.5579 13.9357L10.603 12.9996ZM15.3973 12.9996L14.4425 13.9544C14.3435 14.0534 14.2915 14.1683 14.2867 14.2991C14.2819 14.4299 14.3308 14.5472 14.4335 14.651C14.5433 14.7549 14.6612 14.8056 14.7872 14.8032C14.9132 14.8008 15.0281 14.7477 15.1319 14.6438L16.3579 13.4178C16.4809 13.2993 16.5425 13.161 16.5425 13.003C16.5425 12.845 16.4809 12.7044 16.3579 12.5813L15.1319 11.3554C15.0329 11.2563 14.9223 11.2044 14.8002 11.1996C14.6781 11.1948 14.5621 11.2443 14.4523 11.3482C14.3496 11.452 14.2995 11.5681 14.3019 11.6965C14.3043 11.8248 14.3574 11.9409 14.4613 12.0448L15.3973 12.9996ZM8.28097 18.9246C7.94818 18.9246 7.66403 18.8068 7.4285 18.5713C7.19296 18.3357 7.0752 18.0516 7.0752 17.7188V8.28038C7.0752 7.9476 7.19296 7.66344 7.4285 7.42792C7.66403 7.19238 7.94818 7.07461 8.28097 7.07461H11.6747C11.6593 6.72077 11.7786 6.40732 12.0324 6.13424C12.2862 5.86115 12.6088 5.72461 13.0002 5.72461C13.3963 5.72461 13.7213 5.86115 13.9752 6.13424C14.229 6.40732 14.3458 6.72077 14.3256 7.07461H17.7194C18.0522 7.07461 18.3363 7.19238 18.5719 7.42792C18.8074 7.66344 18.9252 7.9476 18.9252 8.28038V17.7188C18.9252 18.0516 18.8074 18.3357 18.5719 18.5713C18.3363 18.8068 18.0522 18.9246 17.7194 18.9246H8.28097ZM8.28097 17.9496H17.7194C17.7771 17.9496 17.83 17.9256 17.8781 17.8775C17.9261 17.8294 17.9502 17.7765 17.9502 17.7188V8.28038C17.9502 8.22268 17.9261 8.16979 17.8781 8.1217C17.83 8.07363 17.7771 8.04959 17.7194 8.04959H8.28097C8.22327 8.04959 8.17038 8.07363 8.12229 8.1217C8.07421 8.16979 8.05018 8.22268 8.05018 8.28038V17.7188C8.05018 17.7765 8.07421 17.8294 8.12229 17.8775C8.17038 17.9256 8.22327 17.9496 8.28097 17.9496ZM13.0002 7.6717C13.1302 7.6717 13.2377 7.6292 13.3227 7.5442C13.4077 7.4592 13.4502 7.3517 13.4502 7.2217C13.4502 7.0917 13.4077 6.9842 13.3227 6.8992C13.2377 6.8142 13.1302 6.7717 13.0002 6.7717C12.8702 6.7717 12.7627 6.8142 12.6777 6.8992C12.5927 6.9842 12.5502 7.0917 12.5502 7.2217C12.5502 7.3517 12.5927 7.4592 12.6777 7.5442C12.7627 7.6292 12.8702 7.6717 13.0002 7.6717Z" fill="#09366D"/>
</g>
</svg>
