<svg width="26" height="26" viewBox="0 0 26 26" fill="none" xmlns="http://www.w3.org/2000/svg">
<rect width="26" height="26" rx="4" fill="#ECF3FF"/>
<mask id="mask0_2954_10784" style="mask-type:alpha" maskUnits="userSpaceOnUse" x="4" y="4" width="18" height="18">
<rect x="4" y="4" width="18" height="18" fill="#D9D9D9"/>
</mask>
<g mask="url(#mask0_2954_10784)">
<path d="M9.40053 20.1682C9.02516 20.1682 8.70671 20.0367 8.44518 19.7736C8.18364 19.5105 8.05287 19.1913 8.05287 18.8159C8.05287 18.4406 8.18441 18.1221 8.4475 17.8606C8.71059 17.599 9.02981 17.4683 9.40518 17.4683C9.78055 17.4683 10.099 17.5998 10.3605 17.8629C10.6221 18.126 10.7528 18.4452 10.7528 18.8206C10.7528 19.1959 10.6213 19.5144 10.3582 19.7759C10.0951 20.0375 9.7759 20.1682 9.40053 20.1682ZM16.651 20.1682C16.2756 20.1682 15.9572 20.0367 15.6956 19.7736C15.4341 19.5105 15.3033 19.1913 15.3033 18.8159C15.3033 18.4406 15.4349 18.1221 15.698 17.8606C15.961 17.599 16.2803 17.4683 16.6556 17.4683C17.031 17.4683 17.3495 17.5998 17.611 17.8629C17.8725 18.126 18.0033 18.4452 18.0033 18.8206C18.0033 19.1959 17.8718 19.5144 17.6087 19.7759C17.3456 20.0375 17.0264 20.1682 16.651 20.1682ZM8.60524 8.36871L10.45 12.2745H15.6625L17.6831 8.57065C17.712 8.51776 17.7144 8.47089 17.6903 8.43003C17.6663 8.38915 17.6254 8.36871 17.5677 8.36871H8.60524ZM9.3841 16.4557C8.88411 16.4557 8.50214 16.2339 8.23819 15.7901C7.97426 15.3464 7.96536 14.9033 8.21151 14.461L9.24423 12.5745L6.55287 6.88746H5.70623C5.55142 6.88746 5.41584 6.82737 5.29951 6.70718C5.18317 6.58699 5.125 6.44709 5.125 6.28748C5.125 6.12787 5.18509 5.98797 5.30528 5.86778C5.42547 5.74759 5.56536 5.6875 5.72496 5.6875H6.87158C7.01197 5.6875 7.13745 5.72302 7.24802 5.79407C7.3586 5.86512 7.44274 5.96517 7.50044 6.09422L8.03078 7.16875H18.498C18.8379 7.16875 19.0775 7.3024 19.2166 7.5697C19.3558 7.83701 19.3494 8.10048 19.1975 8.36009L16.7598 12.7651C16.635 12.989 16.467 13.1632 16.256 13.2877C16.0449 13.4122 15.8158 13.4745 15.5685 13.4745H10.1312L9.31919 14.9673C9.28073 15.025 9.27953 15.0875 9.31559 15.1548C9.35165 15.2221 9.40574 15.2558 9.47785 15.2558H17.4255C17.578 15.2558 17.7124 15.3159 17.8288 15.436C17.9451 15.5562 18.0033 15.6961 18.0033 15.8557C18.0033 16.0154 17.9432 16.1552 17.823 16.2754C17.7028 16.3956 17.5629 16.4557 17.4033 16.4557H9.3841Z" fill="#09366D"/>
</g>
</svg>
