<svg width="26" height="26" viewBox="0 0 26 26" fill="none" xmlns="http://www.w3.org/2000/svg">
<rect width="26" height="26" rx="4" fill="#ECF3FF"/>
<mask id="mask0_2954_10664" style="mask-type:alpha" maskUnits="userSpaceOnUse" x="4" y="4" width="18" height="18">
<rect x="4" y="4" width="18" height="18" fill="#D9D9D9"/>
</mask>
<g mask="url(#mask0_2954_10664)">
<path d="M16.581 19.5625C16.2537 19.5625 15.9718 19.4443 15.7355 19.208C15.4992 18.9717 15.3811 18.6899 15.3811 18.3625V17.3125H13.5998C13.2724 17.3125 12.9906 17.1943 12.7543 16.958C12.518 16.7217 12.3998 16.4399 12.3998 16.1125V9.86871H10.6185V10.9C10.6185 11.2274 10.5004 11.5092 10.264 11.7455C10.0277 11.9818 9.7459 12.1 9.41855 12.1H6.90602C6.57867 12.1 6.29684 11.9818 6.06052 11.7455C5.82421 11.5092 5.70605 11.2274 5.70605 10.9V7.63746C5.70605 7.31011 5.82421 7.02828 6.06052 6.79197C6.29684 6.55566 6.57867 6.4375 6.90602 6.4375H9.41855C9.7459 6.4375 10.0277 6.55566 10.264 6.79197C10.5004 7.02828 10.6185 7.31011 10.6185 7.63746V8.66875H15.3811V7.63746C15.3811 7.31011 15.4992 7.02828 15.7355 6.79197C15.9718 6.55566 16.2537 6.4375 16.581 6.4375H19.0936C19.4209 6.4375 19.7027 6.55566 19.939 6.79197C20.1754 7.02828 20.2935 7.31011 20.2935 7.63746V10.9C20.2935 11.2274 20.1754 11.5092 19.939 11.7455C19.7027 11.9818 19.4209 12.1 19.0936 12.1H16.581C16.2537 12.1 15.9718 11.9818 15.7355 11.7455C15.4992 11.5092 15.3811 11.2274 15.3811 10.9V9.86871H13.5998V16.1125H15.3811V15.0812C15.3811 14.7539 15.4992 14.472 15.7355 14.2357C15.9718 13.9994 16.2537 13.8813 16.581 13.8813H19.0936C19.4209 13.8813 19.7027 13.9994 19.939 14.2357C20.1754 14.472 20.2935 14.7539 20.2935 15.0812V18.3625C20.2935 18.6899 20.1754 18.9717 19.939 19.208C19.7027 19.4443 19.4209 19.5625 19.0936 19.5625H16.581ZM16.581 10.9H19.0936V7.63746H16.581V10.9ZM16.581 18.3625H19.0936V15.0812H16.581V18.3625ZM6.90602 10.9H9.41855V7.63746H6.90602V10.9Z" fill="#09366D"/>
</g>
</svg>
